# xmcd
#
# Track frame offsets:
#	150
#	17857
#	35775
#	53742
#	84772
#	108455
#	142227
#	175157
#	189267
#	218922
#
# Disc length: 3114 seconds
#
# Revision: 1
# Processed by: cddbd v1.4PL0 Copyright (c) Steve Scherf et al.
# Submitted via: audiograbber 1.81.02
#
DISCID=880c280a
DTITLE=SOUTHERN COLORS - Wildlive
DYEAR=2000
DGENRE=Southern-Rock
TTITLE0=HEADIN' DOWN SOUTH
TTITLE1=THE SOUTH's GONNA DO IT AGAIN
TTITLE2=HOMESICK
TTITLE3=CAN'T YOU SEE
TTITLE4=WILLIN'
TTITLE5=WHIPPING POST
TTITLE6=MOLDAU
TTITLE7=HOOLIGAN RHAPSODY
TTITLE8=SWEET HOME ALABAMA
TTITLE9=HOT LICKS
EXTD=
EXTT0=
EXTT1=
EXTT2=
EXTT3=
EXTT4=
EXTT5=
EXTT6=
EXTT7=
EXTT8=
EXTT9=
PLAYORDER=
